<?xml version="1.0" encoding="utf-8"?>
<!-- Generator: Adobe Illustrator 16.0.0, SVG Export Plug-In . SVG Version: 6.00 Build 0)  -->
<!DOCTYPE svg PUBLIC "-//W3C//DTD SVG 1.1//EN" "http://www.w3.org/Graphics/SVG/1.1/DTD/svg11.dtd">
<svg version="1.1" xmlns="http://www.w3.org/2000/svg" xmlns:xlink="http://www.w3.org/1999/xlink" x="0px" y="0px"
	 width="404.23px" height="600px" viewBox="0 0 404.23 600" enable-background="new 0 0 404.23 600" xml:space="preserve">
<g id="Layer_2">
	<polygon fill="#890000" stroke="#000000" stroke-width="5" stroke-miterlimit="10" points="290.615,12.5 339.615,223.5 
		279.615,287.5 261.615,248.5 233.615,248.5 	"/>
	<polygon fill="#890000" stroke="#000000" stroke-width="5" stroke-miterlimit="10" points="171.615,248.5 115.615,46.5 
		81.615,271.5 120.615,302.5 145.615,248.5 	"/>
	<polygon fill="#890000" stroke="#000000" stroke-width="5" stroke-miterlimit="10" points="286.615,305.5 314.615,367.5 
		370.615,368.5 359.615,312.5 393.615,201.5 	"/>
	<polygon fill="#890000" stroke="#000000" stroke-width="5" stroke-miterlimit="10" points="311.115,390.5 290.115,437.5 
		321.115,464.5 367.615,397.5 	"/>
	<polygon fill="#890000" stroke="#000000" stroke-width="5" stroke-miterlimit="10" points="310.115,487 280.615,458 262.615,500 
		251.115,500 266.615,552 	"/>
	<polygon fill="#890000" stroke="#000000" stroke-width="5" stroke-miterlimit="10" points="229.615,500 176.615,500 159.115,567 
		248.115,576 	"/>
	<polygon fill="#890000" stroke="#000000" stroke-width="5" stroke-miterlimit="10" points="152.615,499.5 143.615,499.5 
		112.615,429 61.115,456 133.615,559 	"/>
	<polygon fill="#890000" stroke="#000000" stroke-width="5" stroke-miterlimit="10" points="102.615,407 89.115,375.5 
		112.615,320.5 13.615,257.5 66.115,360.5 58.115,426.5 	"/>
</g>
<g id="svg2282" xmlns:svg="http://www.w3.org/2000/svg">
	<g>
		<polygon points="190.945,329.5 214.576,329.5 234.123,272.089 214.615,271.05 214.615,263.087 253.158,261.62 271.773,304.16 
			266.394,308.143 257.141,287.605 228.638,337.479 241.135,365.77 201.271,377.915 		"/>
		<polygon points="229.029,338.395 240.619,364.692 289.415,359.199 280.588,337.889 286.022,333.982 305.615,375.449 
			285.559,416.676 280.126,412.465 289.563,392.006 241.529,384.703 228.341,412.463 200.777,373.845 		"/>
		<polygon points="240.481,384.416 228.627,410.521 257.119,461.41 267.009,440.878 272.404,444.872 254.383,487.484 
			216.388,486.363 216.468,478.246 235.062,478.236 215.592,421.687 190.168,421.281 202.219,371.344 		"/>
		<polygon points="214.796,421.615 191.168,421.229 170.414,477.894 189.277,478.831 189.198,486.795 151.28,487.64 133.41,444.805 
			138.989,440.913 148.116,461.601 177.156,412.199 164.963,383.705 204.952,372.625 		"/>
		<polygon points="178.132,410.405 166.074,384.455 117.388,391.373 126.594,412.419 121.231,416.482 100.901,375.602 
			120.212,333.799 125.719,337.851 116.652,358.58 164.805,364.477 177.489,336.337 205.74,374.139 		"/>
		<polygon points="165.242,363.624 177.038,337.476 148.437,286.688 138.59,307.258 133.187,303.281 151.115,260.604 
			189.112,261.593 189.049,269.709 170.456,269.786 190.048,326.266 215.473,326.581 203.53,376.56 		"/>
	</g>
</g>
</svg>
