<?xml version="1.0" encoding="utf-8"?>
<!-- Generator: Adobe Illustrator 16.0.0, SVG Export Plug-In . SVG Version: 6.00 Build 0)  -->
<!DOCTYPE svg PUBLIC "-//W3C//DTD SVG 1.1//EN" "http://www.w3.org/Graphics/SVG/1.1/DTD/svg11.dtd">
<svg version="1.1" xmlns="http://www.w3.org/2000/svg" xmlns:xlink="http://www.w3.org/1999/xlink" x="0px" y="0px" width="960px"
	 height="560px" viewBox="0 0 960 560" enable-background="new 0 0 960 560" xml:space="preserve">
<g id="Layer_2">
	<text transform="matrix(1.0662 0 0 1 374.999 286.5)" font-family="'SFOldRepublic'" font-size="80">SIENAR</text>
	<line fill="none" stroke="#B2000D" stroke-width="4" stroke-miterlimit="10" x1="379" y1="296" x2="655" y2="296"/>
	<text transform="matrix(1 0 0 1 378 333.5)" font-family="'SFOldRepublic'" font-size="40">FLEET SYSTEMS</text>
</g>
<g id="Layer_3">
	<polygon fill="#890000" stroke="#000000" stroke-width="2" stroke-miterlimit="10" points="336.791,217.147 347.592,263.656 
		334.366,277.762 330.399,269.166 324.227,269.166 	"/>
	<polygon fill="#890000" stroke="#000000" stroke-width="2" stroke-miterlimit="10" points="310.562,269.166 298.218,224.642 
		290.724,274.236 299.32,281.068 304.831,269.166 	"/>
	<polygon fill="#890000" stroke="#000000" stroke-width="2" stroke-miterlimit="10" points="335.909,281.729 342.081,295.396 
		354.424,295.616 352,283.273 359.495,258.806 	"/>
	<polygon fill="#890000" stroke="#000000" stroke-width="2" stroke-miterlimit="10" points="341.31,300.465 336.682,310.825 
		343.514,316.776 353.764,302.008 	"/>
	<polygon fill="#890000" stroke="#000000" stroke-width="2" stroke-miterlimit="10" points="341.089,321.736 334.587,315.344 
		330.62,324.602 328.084,324.602 331.501,336.063 	"/>
	<polygon fill="#890000" stroke="#000000" stroke-width="2" stroke-miterlimit="10" points="323.346,324.602 311.664,324.602 
		307.806,339.369 327.423,341.354 	"/>
	<polygon fill="#890000" stroke="#000000" stroke-width="2" stroke-miterlimit="10" points="306.373,324.491 304.39,324.491 
		297.557,308.952 286.205,314.902 302.186,337.605 	"/>
	<polygon fill="#890000" stroke="#000000" stroke-width="2" stroke-miterlimit="10" points="295.353,304.103 292.377,297.158 
		297.557,285.036 275.735,271.149 287.307,293.853 285.544,308.4 	"/>
	<g>
		<polygon points="314.822,287 320.031,287 324.32,274.356 320,274.136 320,272.38 328.515,272.058 332.628,281.435 
			331.447,282.312 329.41,277.785 323.129,288.779 325.884,295.015 317.098,297.682 		"/>
		<polygon points="323.217,288.98 325.771,294.776 336.526,293.565 334.581,288.869 335.779,288.008 340.097,297.148 
			335.677,306.235 334.48,305.307 336.56,300.797 325.972,299.188 323.065,305.307 316.989,296.794 		"/>
		<polygon points="325.741,299.125 323.128,304.879 329.408,316.096 331.588,311.57 332.777,312.45 328.805,321.842 320.43,321.596 
			320.448,319.807 324.546,319.804 320.255,307.34 314.651,307.25 317.307,296.243 		"/>
		<polygon points="320.079,307.324 314.872,307.238 310.296,319.729 314.455,319.935 314.437,321.69 306.079,321.876 
			302.14,312.436 303.37,311.577 305.382,316.137 311.783,305.248 309.095,298.968 317.91,296.525 		"/>
		<polygon points="311.998,304.853 309.34,299.133 298.608,300.658 300.638,305.296 299.456,306.192 294.975,297.181 
			299.231,287.968 300.445,288.86 298.446,293.43 309.06,294.729 311.856,288.527 318.083,296.859 		"/>
		<polygon points="309.157,294.542 311.757,288.777 305.453,277.583 303.282,282.117 302.091,281.24 306.043,271.833 
			314.418,272.052 314.404,273.841 310.306,273.858 314.625,286.307 320.229,286.377 317.596,297.393 		"/>
	</g>
</g>
</svg>
